<svg xmlns="http://www.w3.org/2000/svg" xmlns:xlink="http://www.w3.org/1999/xlink" fill="#000000" version="1.1" x="0px" y="0px" viewBox="0 0 11 11" enable-background="new 0 0 11 11" xml:space="preserve">
<rect x="0" y="0" fill="#000000" width="5" height="5"/>
<rect x="6" y="0" fill="#000000" width="5" height="5"/>
<rect x="0" y="6" fill="#000000" width="5" height="5"/>
<rect x="1" y="1" fill="#ffffff" width="3" height="3"/>
<rect x="2" y="2" fill="#000000" width="1" height="1"/>
<rect x="7" y="1" fill="#ffffff" width="3" height="3"/>
<rect x="8" y="2" fill="#000000" width="1" height="1"/>
<rect x="1" y="7" fill="#ffffff" width="3" height="3"/>
<rect x="2" y="8" fill="#000000" width="1" height="1"/>
<rect x="6" y="6" fill="#000000" width="1" height="1"/>
<rect x="8" y="6" fill="#000000" width="1" height="1"/>
<rect x="10" y="6" fill="#000000" width="1" height="1"/>
<rect x="6" y="8" fill="#000000" width="1" height="1"/>
<rect x="8" y="8" fill="#000000" width="1" height="1"/>
<rect x="10" y="8" fill="#000000" width="1" height="1"/>
<rect x="6" y="10" fill="#000000" width="1" height="1"/>
<rect x="8" y="10" fill="#000000" width="1" height="1"/>
<rect x="10" y="10" fill="#000000" width="1" height="1"/>
<rect x="7" y="7" fill="#000000" width="1" height="1"/>
<rect x="9" y="7" fill="#000000" width="1" height="1"/>
<rect x="7" y="9" fill="#000000" width="1" height="1"/>
<rect x="9" y="9" fill="#000000" width="1" height="1"/>
</svg>